<?xml version="1.0" encoding="UTF-8" standalone="no"?><!DOCTYPE svg PUBLIC "-//W3C//DTD SVG 1.1//EN" "http://www.w3.org/Graphics/SVG/1.1/DTD/svg11.dtd"><svg width="100%" height="100%" viewBox="0 0 134 134" version="1.1" xmlns="http://www.w3.org/2000/svg" xmlns:xlink="http://www.w3.org/1999/xlink" xml:space="preserve" xmlns:serif="http://www.serif.com/" style="fill-rule:evenodd;clip-rule:evenodd;stroke-linejoin:round;"><g><g><path d="M32.005,56.401c3.033,-29.109 46.148,-36.615 60.163,-21.667c11.74,12.523 13.598,63.766 -1.915,70.442c-15.513,6.676 -60.786,-24.412 -58.248,-48.775Z" style="fill:#fff;fill-opacity:0;fill-rule:nonzero;"/><path d="M5.173,53.605c2.733,-26.228 22.197,-43.949 45.462,-50.521c23.318,-6.587 48.557,-0.302 61.214,13.199c4.742,5.058 9.323,13.056 12.255,23.2c4.677,16.177 5.671,39.059 1.957,55.757c-4.025,18.099 -14.311,30.055 -25.144,34.716c-11.483,4.942 -32.731,3.134 -52.65,-9.018c-13.138,-8.015 -25.87,-19.735 -33.654,-31.955c-7.426,-11.658 -10.623,-24.03 -9.441,-35.378Zm26.832,2.796c-2.538,24.364 42.735,55.451 58.248,48.775c15.513,-6.676 13.655,-57.919 1.915,-70.442c-14.015,-14.949 -57.13,-7.442 -60.163,21.667Z" style="fill:#b04191;"/><path d="M60.343,35.747l30.993,41.993l-18.347,-1.069l-12.647,11.578l0,-52.502Z" style="fill-rule:nonzero;stroke:#000;stroke-width:2.78px;"/></g></g></svg>