<?xml version="1.0" encoding="UTF-8" standalone="no"?>
<!DOCTYPE svg PUBLIC "-//W3C//DTD SVG 1.1//EN" "http://www.w3.org/Graphics/SVG/1.1/DTD/svg11.dtd"><svg width="100%"
    height="100%" viewBox="0 0 134 134" version="1.1" xmlns="http://www.w3.org/2000/svg"
    xmlns:xlink="http://www.w3.org/1999/xlink" xml:space="preserve" xmlns:serif="http://www.serif.com/"
    style="fill-rule:evenodd;clip-rule:evenodd;stroke-linecap:round;stroke-linejoin:round;">
    <path
        class="secondary-fill primary-stroke"
        d="M94.264,118.641c-1.693,1.692 -4.478,1.692 -6.171,0l-6.921,-6.921c-1.692,-1.693 -1.692,-4.478 0,-6.171l24.377,-24.377c1.693,-1.692 4.478,-1.692 6.171,0l6.921,6.921c1.692,1.693 1.692,4.478 -0,6.171l-24.377,24.377Z"
        style="fill:#ffa814;fill-rule:nonzero;stroke:#000;stroke-width:8.73px;" />
    <path
        class="secondary-fill primary-stroke"
        d="M104.27,82.45l-21.82,21.82l-29.998,-6.001c-1.664,-0.333 -2.989,-1.606 -3.386,-3.256l-14.497,-55.179c-0.081,-0.336 -0.122,-0.68 -0.122,-1.026c0,-2.394 1.97,-4.364 4.364,-4.364c0.345,0 0.69,0.041 1.026,0.122l55.179,14.497c1.649,0.398 2.923,1.723 3.256,3.386l6.001,29.998Zm-30.548,-17.456c-4.817,0 -8.728,3.911 -8.728,8.728c0,4.817 3.911,8.728 8.728,8.728c4.817,0 8.728,-3.911 8.728,-8.728c0,-4.817 -3.911,-8.728 -8.728,-8.728Z"
        style="fill:#ffa814;stroke:#000;stroke-width:8.73px;" />
    <path
        class="primary-stroke"
        d="M35.755,35.755l31.796,31.796"
        style="fill:none;fill-rule:nonzero;stroke:#000;stroke-width:8.73px;"
    />
    <path
        d="M18.571,18.571c0,0 -5.269,0.452 -9.156,12.072c-4.128,12.342 -4.252,24.356 -0.533,38.716c3.376,13.037 10.867,25.025 24.006,30.548"
        style="fill:none;stroke:url(#_Linear1);stroke-width:11.44px;stroke-linecap:butt;stroke-miterlimit:1.5;"
    />
    <path
        class="primary-fill"
        d="M22.563,6.596l7.983,7.983c2.203,2.203 2.203,5.78 0,7.983l-7.983,7.983c-2.203,2.203 -5.78,2.203 -7.983,0l-7.983,-7.983c-2.203,-2.203 -2.203,-5.78 0,-7.983l7.983,-7.983c2.203,-2.203 5.78,-2.203 7.983,0Z"
    />
    <defs>
        <linearGradient
            id="_Linear1" x1="0" y1="0" x2="1" y2="0"
            class="gradient-primary-tertiary"
            gradientUnits="userSpaceOnUse"
            gradientTransform="matrix(0,54.121857,-167.132486,0,7.145624,37.698223)">
            <stop class="gradient-stop-0-primary" offset="0" style="stop-color:#000;stop-opacity:1" />
            <stop class="gradient-stop-1-tertiary" offset="1" style="stop-color:#b63131;stop-opacity:1" />
        </linearGradient>
    </defs>
</svg>