<?xml version="1.0" encoding="UTF-8" standalone="no"?><!DOCTYPE svg PUBLIC "-//W3C//DTD SVG 1.1//EN" "http://www.w3.org/Graphics/SVG/1.1/DTD/svg11.dtd"><svg width="100%" height="100%" viewBox="0 0 134 134" version="1.1" xmlns="http://www.w3.org/2000/svg" xmlns:xlink="http://www.w3.org/1999/xlink" xml:space="preserve" xmlns:serif="http://www.serif.com/" style="fill-rule:evenodd;clip-rule:evenodd;stroke-linecap:round;stroke-linejoin:round;"><path d="M87.261,118.294c-2.155,2.154 -5.701,2.154 -7.856,0l-8.811,-8.811c-2.154,-2.155 -2.154,-5.701 0,-7.856l31.033,-31.033c2.155,-2.154 5.701,-2.154 7.856,0l8.811,8.811c2.154,2.155 2.154,5.701 -0,7.856l-31.033,31.033Z" style="fill:#ffa814;fill-rule:nonzero;stroke:#000;stroke-width:11.11px;"/><path d="M100,72.222l-27.778,27.778l-38.189,-7.639c-2.118,-0.423 -3.804,-2.045 -4.311,-4.144l-18.456,-70.244c-0.103,-0.428 -0.156,-0.866 -0.156,-1.306c0,-3.048 2.508,-5.556 5.556,-5.556c0.44,0 0.878,0.052 1.306,0.156l70.244,18.456c2.099,0.507 3.721,2.193 4.144,4.311l7.639,38.189Zm-38.889,-22.222c-6.132,0 -11.111,4.979 -11.111,11.111c0,6.132 4.979,11.111 11.111,11.111c6.132,0 11.111,-4.979 11.111,-11.111c0,-6.132 -4.979,-11.111 -11.111,-11.111Z" style="fill:#ffa814;stroke:#000;stroke-width:11.11px;"/><path d="M12.778,12.778l40.478,40.478" style="fill:none;fill-rule:nonzero;stroke:#000;stroke-width:11.11px;"/></svg>