<?xml version="1.0" encoding="UTF-8" standalone="no"?>
<!DOCTYPE svg PUBLIC "-//W3C//DTD SVG 1.1//EN" "http://www.w3.org/Graphics/SVG/1.1/DTD/svg11.dtd"><svg width="100%"
    height="100%" viewBox="0 0 32 32" version="1.1" xmlns="http://www.w3.org/2000/svg"
    xmlns:xlink="http://www.w3.org/1999/xlink" xml:space="preserve" xmlns:serif="http://www.serif.com/"
    style="fill-rule:evenodd;clip-rule:evenodd;stroke-linejoin:round;stroke-miterlimit:2;">
    <g>
        <path
            d="M16.006,4.732c5.085,-3.537 8.453,-3.272 11.477,-3.272c2.663,0 4.513,1.5 4.513,4.03l0.016,17.861c0,2.652 -1.694,4.222 -4.529,4.222c-0.635,0 -1.632,-0.067 -2.314,-0.04c-5.027,0.201 -5.713,3.012 -9.163,3.012c-3.45,0 -4.136,-2.811 -9.163,-3.012c-0.682,-0.027 -1.679,0.04 -2.314,0.04c-2.835,0 -4.529,-1.569 -4.529,-4.222l0.016,-17.861c0,-2.53 1.85,-4.03 4.513,-4.03c3.024,0 6.391,-0.266 11.477,3.272Zm11.753,11.688l-2.59,0.01c-2.579,0 -5.195,0.93 -6.989,2.457c-0.103,0.089 -0.162,0.219 -0.162,0.356l0.001,5.984c-0,0.068 0.037,0.131 0.097,0.164c0.06,0.033 0.132,0.031 0.19,-0.005c0.794,-0.465 3.137,-1.697 5.813,-1.804c0.371,-0.015 2.81,-0.038 3.644,-0.045c0.155,-0.002 0.279,-0.127 0.279,-0.282l-0,-6.552c-0,-0.075 -0.03,-0.147 -0.083,-0.2c-0.053,-0.053 -0.125,-0.083 -0.2,-0.082Zm-23.319,-10.929c-0.125,-0 -0.244,0.05 -0.332,0.138c-0.088,0.088 -0.138,0.208 -0.138,0.332l0,17.107c0,0.258 0.207,0.467 0.465,0.47c0.962,0.009 3.112,0.03 3.459,0.043c2.413,0.096 4.556,1.108 5.536,1.647c0.115,0.068 0.258,0.069 0.375,0.002c0.116,-0.066 0.188,-0.19 0.188,-0.324c0.003,-2.908 0.003,-14.581 0.003,-16.3c0,-0.136 -0.058,-0.265 -0.161,-0.355c-1.795,-1.544 -4.412,-2.76 -6.991,-2.76l-2.403,0Zm23.32,0l-2.591,-0c-2.579,0 -5.196,1.216 -6.991,2.76c-0.102,0.089 -0.161,0.219 -0.161,0.355l0.001,5.68c-0,0.069 0.038,0.132 0.098,0.165c0.061,0.033 0.134,0.029 0.192,-0.008c0.798,-0.491 3.137,-1.784 5.81,-1.891c1.764,-0.07 3.104,-0.122 3.652,-0.144c0.151,-0.006 0.271,-0.13 0.271,-0.282l0,-6.352c-0,-0.156 -0.126,-0.282 -0.282,-0.282Z"
            style="fill:url(#_Linear1);" />
    </g>
    <defs>
        <linearGradient id="_Linear1" x1="0" y1="0" x2="1" y2="0" gradientUnits="userSpaceOnUse"
            gradientTransform="matrix(32.012098,0,0,29.089069,0,16)">
            <stop offset="0" style="stop-color:#ff0084;stop-opacity:1" />
            <stop offset="0.46" style="stop-color:#ff1400;stop-opacity:1" />
            <stop offset="1" style="stop-color:#ffc300;stop-opacity:1" />
        </linearGradient>
    </defs>
</svg>